<svg width="178" height="43" viewBox="0 0 178 43" version="1.1" xmlns="http://www.w3.org/2000/svg" xmlns:xlink="http://www.w3.org/1999/xlink">
<title>&#208;&#187;&#208;&#190;&#208;&#179;&#208;&#190; 2-2</title>
<desc>Created using Figma</desc>
<g id="Canvas" transform="translate(5976 -2254)">
<g id="&#208;&#187;&#208;&#190;&#208;&#179;&#208;&#190; 2-2">
<g id="logo 2">
<g id="Group">
<g id="Group">
<g id="Vector">
<use xlink:href="#path0_fill" transform="translate(-5916.78 2254.24)" fill="#FEED00"/>
</g>
<g id="Vector">
<use xlink:href="#path1_fill" transform="translate(-5975.97 2267.29)" fill="#FEED00"/>
</g>
<g id="Vector">
<use xlink:href="#path2_fill" transform="translate(-5915.24 2272.32)" fill="#FEED00"/>
</g>
<g id="Vector">
<use xlink:href="#path3_fill" transform="translate(-5973.51 2257.06)" fill="#FEED00"/>
</g>
</g>
</g>
</g>
<g id="Group">
<g id="Vector">
<use xlink:href="#path4_fill" transform="translate(-5901.74 2264.07)" fill="#282C23"/>
</g>
<g id="Vector">
<use xlink:href="#path5_fill" transform="translate(-5892.5 2263.65)" fill="#282C23"/>
</g>
<g id="Vector">
<use xlink:href="#path6_fill" transform="translate(-5881.13 2263.93)" fill="#282C23"/>
</g>
<g id="Vector">
<use xlink:href="#path7_fill" transform="translate(-5869.2 2263.51)" fill="#282C23"/>
</g>
<g id="Vector">
<use xlink:href="#path8_fill" transform="translate(-5856.98 2263.65)" fill="#282C23"/>
</g>
<g id="Vector">
<use xlink:href="#path9_fill" transform="translate(-5845.75 2263.79)" fill="#282C23"/>
</g>
<g id="Vector">
<use xlink:href="#path10_fill" transform="translate(-5837.37 2263.79)" fill="#282C23"/>
</g>
<g id="Vector">
<use xlink:href="#path11_fill" transform="translate(-5827.85 2263.79)" fill="#282C23"/>
</g>
<g id="Vector">
<use xlink:href="#path12_fill" transform="translate(-5818.48 2263.79)" fill="#282C23"/>
</g>
<g id="Group">
<g id="Vector">
<use xlink:href="#path13_fill" transform="translate(-5901.88 2279.18)" fill="#5A5C69"/>
</g>
<g id="Vector">
<use xlink:href="#path14_fill" transform="translate(-5891.36 2279.46)" fill="#5A5C69"/>
</g>
<g id="Vector">
<use xlink:href="#path15_fill" transform="translate(-5881.99 2279.6)" fill="#5A5C69"/>
</g>
<g id="Vector">
<use xlink:href="#path16_fill" transform="translate(-5873.89 2279.6)" fill="#5A5C69"/>
</g>
<g id="Vector">
<use xlink:href="#path17_fill" transform="translate(-5863.66 2279.6)" fill="#5A5C69"/>
</g>
</g>
</g>
</g>
</g>
<defs>
<path id="path0_fill" d="M 1.04383 2.08405C 1.62033 2.08405 2.08767 1.61752 2.08767 1.04202C 2.08767 0.466531 1.62033 0 1.04383 0C 0.46734 0 0 0.466531 0 1.04202C 0 1.61752 0.46734 2.08405 1.04383 2.08405Z"/>
<path id="path1_fill" d="M 0.675423 1.3485C 1.04845 1.3485 1.35085 1.04663 1.35085 0.674252C 1.35085 0.301873 1.04845 0 0.675423 0C 0.302397 0 0 0.301873 0 0.674252C 0 1.04663 0.302397 1.3485 0.675423 1.3485Z"/>
<path id="path2_fill" d="M 2.02627 4.04551C 3.14534 4.04551 4.05254 3.13989 4.05254 2.02275C 4.05254 0.905619 3.14534 0 2.02627 0C 0.907189 0 0 0.905619 0 2.02275C 0 3.13989 0.907189 4.04551 2.02627 4.04551Z"/>
<path id="path3_fill" d="M 58.946 26.9701C 59.0688 26.3571 59.1916 25.7441 59.1916 25.1312C 59.1916 22.4342 57.7179 20.0436 55.5689 18.7564C 55.9373 17.7757 56.1829 16.7337 56.2443 15.6304C 58.4548 14.3432 59.9284 11.9526 59.9284 9.25563C 59.9284 8.39749 59.8056 7.53935 59.4986 6.80381C 59.7442 6.19085 59.9284 5.5166 59.9284 4.84235C 59.9284 2.14535 57.7793 -1.16912e-07 55.0776 -1.16912e-07C 53.4198 -1.16912e-07 51.9461 0.796843 51.0865 2.08405C 49.3059 2.45182 47.7094 3.49385 46.6656 4.90365C 46.4814 4.90365 46.2972 4.90365 46.1129 4.90365C 43.2271 4.90365 40.6482 6.06826 38.8061 7.96842C 37.6395 7.41676 36.2886 7.11029 34.9378 7.11029C 33.4027 7.11029 31.9905 7.47806 30.701 8.15231C 29.9642 7.66195 29.1046 7.41676 28.1835 7.41676C 26.0959 7.41676 24.3152 8.76527 23.7626 10.6654C 22.3504 9.80729 20.6925 9.37822 18.9732 9.37822C 17.9908 9.37822 17.0698 9.50081 16.1487 9.80729C 15.4119 9.07174 14.5523 8.52008 13.6313 8.09101C 13.5085 6.61992 12.2804 5.45531 10.7454 5.45531C 9.51732 5.45531 8.47348 6.19085 8.04367 7.29417C 3.49992 7.84583 0 11.83 0 16.5498C 0 18.0822 0.368413 19.5533 0.982433 20.8405C 0.368413 21.7599 0 22.8632 0 24.0279C 0 27.0926 2.51748 29.6058 5.58759 29.6058C 6.57002 29.6058 7.55245 29.3606 8.35068 28.8702C 10.0699 30.6478 12.4646 31.7511 15.1663 31.7511C 16.5786 31.7511 17.868 31.4446 19.096 30.893C 19.2188 34.7546 22.4732 37.8807 26.4643 37.8807C 28.9818 37.8807 31.1922 36.6548 32.4817 34.7546C 33.2185 34.8772 33.8939 34.9385 34.6922 34.9385C 35.4904 34.9385 36.2886 34.8772 37.0868 34.6933C 38.2535 35.4288 39.6043 35.8579 41.078 35.8579C 44.1481 35.8579 46.727 34.019 47.8936 31.4446C 48.9988 32.1189 50.3497 32.5479 51.7619 32.5479C 53.297 32.5479 54.7092 32.1189 55.8759 31.322C 56.3057 31.5672 56.7355 31.7511 57.2881 31.7511C 58.7618 31.7511 59.9284 30.5865 59.9284 29.1154C 59.9284 28.196 59.4986 27.4604 58.946 26.9701Z"/>
<path id="path4_fill" d="M 0.426248 10.6305L 1.705 10.6305C 1.84708 10.6305 1.98917 10.4906 1.98917 10.3507L 1.98917 6.5741L 2.5575 5.87472L 6.39375 10.4906C 6.39375 10.6305 6.53584 10.6305 6.67792 10.6305L 8.24083 10.6305C 8.38292 10.6305 8.525 10.4906 8.525 10.4906C 8.525 10.3507 8.525 10.2108 8.525 10.2108L 3.97833 4.75573L 8.38292 0.419624C 8.525 0.27975 8.525 0.139874 8.38292 0.139874C 8.38292 0 8.24084 2.13431e-06 8.09875 2.13431e-06L 6.39375 2.13431e-06C 6.25167 2.13431e-06 6.25167 0 6.10958 0.139874L 1.84708 4.47598L 1.84708 0.279747C 1.84708 0.139872 1.705 2.13431e-06 1.56292 2.13431e-06L 0.284167 2.13431e-06C 0.142083 2.13431e-06 -1.08401e-06 0.139872 -1.08401e-06 0.279747L -1.08401e-06 10.4906C 0.142082 10.4906 0.284165 10.6305 0.426248 10.6305Z"/>
<path id="path5_fill" d="M 8.52501 1.67849C 8.09875 1.11899 7.53042 0.699374 6.96209 0.419626C 6.39376 0.139877 5.68334 -2.13431e-06 4.83084 -2.13431e-06C 3.97834 -2.13431e-06 3.26792 0.139877 2.69959 0.419626C 2.13125 0.699374 1.56292 1.11899 1.13667 1.67849C 0.710415 2.23799 0.42625 2.79749 0.284167 3.49686C 0.142083 4.19623 -1.08401e-06 4.8956 -1.08401e-06 5.59498C -1.08401e-06 6.29435 0.142083 6.99372 0.284167 7.69309C 0.42625 8.39247 0.852498 8.95197 1.13667 9.51147C 1.56292 10.071 2.13125 10.4906 2.69959 10.7703C 3.26792 11.0501 3.97834 11.19 4.83084 11.19C 5.68334 11.19 6.39376 11.0501 6.96209 10.7703C 7.53042 10.4906 8.09875 10.071 8.52501 9.51147C 8.95126 8.95197 9.23543 8.39247 9.37751 7.69309C 9.51959 6.99372 9.66167 6.29435 9.66167 5.59498C 9.66167 4.8956 9.51959 4.19623 9.37751 3.49686C 9.23543 2.79749 8.95126 2.23799 8.52501 1.67849ZM 4.83084 9.51147C 4.2625 9.51147 3.83625 9.37159 3.55209 9.23172C 3.12583 8.95197 2.84167 8.67221 2.5575 8.39247C 2.27333 7.97284 2.13125 7.55322 1.98917 7.1336C 1.84709 6.71397 1.84708 6.15448 1.84708 5.73485C 1.84708 5.31523 1.84709 4.75573 1.98917 4.33611C 2.13125 3.91649 2.27333 3.49686 2.5575 3.07724C 2.84167 2.65761 3.12583 2.37787 3.55209 2.23799C 3.97834 1.95824 4.40459 1.95824 4.83084 1.95824C 5.39917 1.95824 5.82542 2.09812 6.10959 2.23799C 6.53584 2.51774 6.82 2.79749 7.10417 3.07724C 7.38834 3.49686 7.53042 3.91649 7.67251 4.33611C 7.81459 4.75573 7.81459 5.31523 7.81459 5.73485C 7.81459 6.15448 7.81459 6.71397 7.67251 7.1336C 7.53042 7.55322 7.38834 7.97284 7.10417 8.39247C 6.82 8.81209 6.53584 9.09184 6.10959 9.23172C 5.82542 9.37159 5.39917 9.51147 4.83084 9.51147Z"/>
<path id="path6_fill" d="M 0.284167 10.7703L 1.42083 10.7703C 1.56292 10.7703 1.705 10.6305 1.705 10.4906L 1.705 3.77661L 4.12042 10.4906C 4.12042 10.6305 4.2625 10.7703 4.40459 10.7703L 5.54125 10.7703C 5.68334 10.7703 5.82542 10.6305 5.82542 10.4906L 8.24084 3.77661L 8.24084 10.4906C 8.24084 10.6305 8.38292 10.7703 8.525 10.7703L 9.66167 10.7703C 9.80375 10.7703 9.94584 10.6305 9.94584 10.4906L 9.94584 0.279749C 9.94584 0.139874 9.80375 -1.06716e-06 9.66167 -1.06716e-06L 7.95667 -1.06716e-06C 7.81459 -1.06716e-06 7.6725 0.139874 7.6725 0.279749L 4.97292 7.97285L 2.27334 0.279749C 2.27334 0.139874 2.13125 -1.06716e-06 1.98917 -1.06716e-06L 0.284167 -1.06716e-06C 0.142083 -1.06716e-06 -1.08401e-06 0.139874 -1.08401e-06 0.279749L -1.08401e-06 10.4906C -1.08401e-06 10.6305 0.142083 10.7703 0.284167 10.7703Z"/>
<path id="path7_fill" d="M 1.13667 8.95197C 1.56292 9.37159 2.13125 9.65134 2.69958 9.79121C 3.26792 9.93109 3.83626 10.071 4.54667 10.071L 4.54667 11.0501C 4.54667 11.19 4.68875 11.3298 4.83084 11.3298L 6.10959 11.3298C 6.25167 11.3298 6.39376 11.19 6.39376 11.0501L 6.39376 10.071C 7.81459 10.071 8.95126 9.65134 9.80376 8.95197C 10.6563 8.2526 11.2246 7.1336 11.2246 5.59498C 11.2246 4.89561 11.0825 4.33611 10.9404 3.77661C 10.6563 3.21711 10.3721 2.79749 9.94584 2.37787C 9.51959 1.95824 8.95126 1.67849 8.38292 1.39874C 7.81459 1.25887 7.24626 1.11899 6.53584 1.11899L 6.53584 0.27975C 6.53584 0.139876 6.39375 0 6.25167 0L 4.97292 0C 4.83084 0 4.68875 0.139876 4.68875 0.27975L 4.68875 1.11899C 3.97834 1.11899 3.41 1.25887 2.84167 1.39874C 2.27334 1.67849 1.705 1.95824 1.27875 2.23799C 0.852499 2.65761 0.568336 3.07724 0.284169 3.63673C 2.15955e-06 4.19623 1.08401e-06 4.75573 1.08401e-06 5.45511C 1.08401e-06 6.15448 0.142086 6.71398 0.284169 7.27347C 0.284169 8.11272 0.710417 8.67222 1.13667 8.95197ZM 1.705 5.73485C 1.705 4.8956 1.98917 4.19624 2.41542 3.77661C 2.84167 3.35699 3.55209 3.07724 4.54667 3.07724L 4.54667 8.39247C 3.55209 8.25259 2.84167 8.11272 2.41542 7.6931C 1.84709 7.27347 1.705 6.5741 1.705 5.73485ZM 6.39376 8.39247L 6.39376 2.93736C 7.38834 3.07724 8.09875 3.21711 8.525 3.63673C 8.95125 4.19623 9.23542 4.75573 9.23542 5.59498C 9.23542 6.43423 8.95125 7.1336 8.525 7.55322C 8.09875 8.11272 7.38834 8.39247 6.39376 8.39247Z"/>
<path id="path8_fill" d="M 8.525 1.67849C 8.09875 1.11899 7.53041 0.699374 6.96208 0.419626C 6.39374 0.139877 5.68333 -2.13431e-06 4.83083 -2.13431e-06C 3.97833 -2.13431e-06 3.26791 0.139877 2.69958 0.419626C 2.13125 0.699374 1.56291 1.11899 1.13666 1.67849C 0.710414 2.23799 0.42625 2.79749 0.284167 3.49686C 0.142083 4.19623 4.33604e-06 4.8956 4.33604e-06 5.59498C 4.33604e-06 6.29435 0.142083 6.99372 0.284167 7.69309C 0.42625 8.39247 0.852498 8.95197 1.13666 9.51147C 1.56291 10.071 2.13125 10.4906 2.69958 10.7703C 3.26791 11.0501 3.97833 11.19 4.83083 11.19C 5.68333 11.19 6.39374 11.0501 6.96208 10.7703C 7.53041 10.4906 8.09875 10.071 8.525 9.51147C 8.95125 8.95197 9.23542 8.39247 9.3775 7.69309C 9.51958 6.99372 9.66166 6.29435 9.66166 5.59498C 9.66166 4.8956 9.51958 4.19623 9.3775 3.49686C 9.23542 2.79749 8.80917 2.23799 8.525 1.67849ZM 4.83083 9.51147C 4.2625 9.51147 3.83625 9.37159 3.55209 9.23172C 3.12584 8.95197 2.84166 8.67221 2.5575 8.39247C 2.27333 7.97284 2.13125 7.55322 1.98916 7.1336C 1.84708 6.71397 1.84708 6.15448 1.84708 5.73485C 1.84708 5.31523 1.84708 4.75573 1.98916 4.33611C 2.13125 3.91649 2.27333 3.49686 2.5575 3.07724C 2.84166 2.65761 3.12584 2.37787 3.55209 2.23799C 3.97834 1.95824 4.40458 1.95824 4.83083 1.95824C 5.25708 1.95824 5.82541 2.09812 6.10958 2.23799C 6.53583 2.51774 6.82 2.79749 7.10417 3.07724C 7.38834 3.49686 7.53041 3.91649 7.67249 4.33611C 7.81458 4.75573 7.81459 5.31523 7.81459 5.73485C 7.81459 6.15448 7.81458 6.71397 7.67249 7.1336C 7.53041 7.55322 7.38834 7.97284 7.10417 8.39247C 6.82 8.81209 6.53583 9.09184 6.10958 9.23172C 5.68333 9.37159 5.25708 9.51147 4.83083 9.51147Z"/>
<path id="path9_fill" d="M 4.54667 1.06716e-06L 0.284169 1.06716e-06C 0.142086 1.06716e-06 -4.33604e-06 0.139877 -4.33604e-06 0.279751L -4.33604e-06 10.4906C -4.33604e-06 10.6305 0.142086 10.7703 0.284169 10.7703L 1.56292 10.7703C 1.70501 10.7703 1.84708 10.6305 1.84708 10.4906L 1.84708 6.71398L 4.40459 6.71398C 5.39917 6.71398 6.25167 6.43423 6.82 5.87473C 7.38834 5.31523 7.6725 4.47598 7.6725 3.49686C 7.6725 2.51774 7.38834 1.67849 6.82 1.119C 6.39375 0.419623 5.68334 1.06716e-06 4.54667 1.06716e-06ZM 1.98917 1.81837L 4.12042 1.81837C 4.68875 1.81837 5.25708 1.95824 5.54125 2.23799C 5.82542 2.51774 5.96751 2.93736 5.96751 3.35699C 5.96751 3.91648 5.82542 4.19624 5.54125 4.47599C 5.25708 4.75573 4.83083 4.89561 4.12042 4.89561L 1.98917 4.89561L 1.98917 1.81837Z"/>
<path id="path10_fill" d="M 7.95667 1.06716e-06L 0.284171 1.06716e-06C 0.142088 1.06716e-06 -2.16802e-06 0.139877 -2.16802e-06 0.279751L -2.16802e-06 1.39875C -2.16802e-06 1.53862 0.142088 1.6785 0.284171 1.6785L 3.12584 1.6785L 3.12584 10.3507C 3.12584 10.4906 3.26792 10.6305 3.41 10.6305L 4.83084 10.6305C 4.97292 10.6305 5.115 10.4906 5.115 10.3507L 5.115 1.6785L 7.95667 1.6785C 8.09875 1.6785 8.24084 1.53862 8.24084 1.39875L 8.24084 0.279751C 8.24084 0.279751 8.09875 1.06716e-06 7.95667 1.06716e-06Z"/>
<path id="path11_fill" d="M 7.81459 1.06716e-06L 6.53583 1.06716e-06C 6.39375 1.06716e-06 6.25166 0.139877 6.25166 0.279751L 6.25166 4.33611L 1.84708 4.33611L 1.84708 0.279751C 1.84708 0.139877 1.705 1.06716e-06 1.56292 1.06716e-06L 0.284167 1.06716e-06C 0.142083 1.06716e-06 4.33604e-06 0.139877 4.33604e-06 0.279751L 4.33604e-06 10.4906C 4.33604e-06 10.6305 0.142083 10.7703 0.284167 10.7703L 1.56292 10.7703C 1.705 10.7703 1.84708 10.6305 1.84708 10.4906L 1.84708 6.15448L 6.25166 6.15448L 6.25166 10.4906C 6.25166 10.6305 6.39375 10.7703 6.53583 10.7703L 7.81459 10.7703C 7.95667 10.7703 8.09875 10.6305 8.09875 10.4906L 8.09875 0.279751C 8.09875 0.279751 7.95667 1.06716e-06 7.81459 1.06716e-06Z"/>
<path id="path12_fill" d="M 17.4762 1.06716e-06L 13.3558 1.06716e-06C 12.3613 1.06716e-06 11.5087 0.279748 10.9404 0.839246C 10.3721 1.39874 10.0879 2.23799 10.0879 3.21711C 10.0879 4.19623 10.3721 4.8956 10.7983 5.4551C 11.2246 5.87473 11.6508 6.15448 12.2192 6.43423L 9.3775 10.3507L 5.68334 0.139873C 5.68334 -1.07341e-06 5.54125 1.06716e-06 5.39916 1.06716e-06L 3.97833 1.06716e-06C 3.83625 1.06716e-06 3.69417 0.139877 3.69417 0.279751L 2.16802e-06 10.4906C 2.16802e-06 10.6305 2.16802e-06 10.6305 2.16802e-06 10.7703C 2.16802e-06 10.9102 0.142081 10.9102 0.284165 10.9102L 1.56292 10.9102C 1.705 10.9102 1.84708 10.7703 1.84708 10.6305L 2.84167 7.83297L 6.39375 7.83297L 7.38833 10.6305C 7.38833 10.7703 7.53042 10.9102 7.6725 10.9102L 9.09334 10.9102C 9.23542 10.9102 9.23542 10.9102 9.3775 10.7703C 9.3775 10.9102 9.51958 10.9102 9.66166 10.9102L 11.2246 10.9102C 11.3667 10.9102 11.3667 10.9102 11.5088 10.7703L 14.3504 6.71398L 16.0554 6.71398L 16.0554 10.6305C 16.0554 10.7703 16.1975 10.9102 16.3396 10.9102L 17.6183 10.9102C 17.7604 10.9102 17.9025 10.7703 17.9025 10.6305L 17.9025 0.419623C 17.7604 0.279749 17.6183 1.06716e-06 17.4762 1.06716e-06ZM 5.54125 6.0146L 3.12583 6.0146L 4.40458 2.51774L 5.54125 6.0146ZM 15.7713 1.81837L 15.7713 4.89561L 13.64 4.89561C 13.0717 4.89561 12.5033 4.75573 12.2192 4.47599C 11.935 4.19624 11.7929 3.77661 11.7929 3.21711C 11.7929 2.65761 11.935 2.37787 12.2192 2.09812C 12.5033 1.81837 13.0717 1.6785 13.64 1.6785L 15.7713 1.6785L 15.7713 1.81837Z"/>
<path id="path13_fill" d="M 8.66709 6.71397L 7.38834 6.71397C 7.24626 6.71397 7.10417 6.85385 7.10417 6.99372C 7.10417 7.41335 6.96209 7.6931 6.82 8.11272C 6.67792 8.39247 6.53584 8.67221 6.39375 8.95196C 6.25167 9.23171 5.9675 9.37159 5.68334 9.51146C 5.39917 9.65134 5.115 9.65134 4.68875 9.65134C 4.12042 9.65134 3.69417 9.51147 3.41 9.37159C 2.98375 9.23172 2.69958 8.95196 2.5575 8.53234C 2.27333 8.11272 2.13125 7.6931 1.98916 7.27347C 1.84708 6.71398 1.84708 6.29435 1.84708 5.73485C 1.84708 5.17535 1.84708 4.75573 1.98916 4.33611C 2.13125 3.91648 2.27333 3.49686 2.5575 3.07724C 2.84167 2.79749 3.12583 2.51774 3.41 2.23799C 3.69417 2.09811 4.2625 1.95824 4.68875 1.95824C 5.25709 1.95824 5.82542 2.09812 6.25167 2.37787C 6.67792 2.65762 6.96209 3.21711 7.10417 3.77661C 7.10417 3.91649 7.24626 4.05636 7.38834 4.05636L 8.66709 4.05636C 8.80917 4.05636 8.80917 4.05636 8.95125 3.91648C 8.95125 3.91648 9.09334 3.77661 9.09334 3.63673C 8.95125 3.07724 8.80917 2.51774 8.66709 2.09812C 8.38292 1.67849 8.09875 1.25887 7.6725 0.979122C 7.24625 0.699373 6.82 0.419624 6.39375 0.27975C 5.9675 0.139876 5.39917 0 4.83083 0C 3.97833 0 3.26792 0.139873 2.69958 0.419622C 2.13125 0.699371 1.56292 1.119 1.13667 1.67849C 0.710416 2.23799 0.426251 2.79749 0.284168 3.49686C 0.142084 4.19623 0 4.8956 0 5.73485C 0 6.43422 0.142084 7.27347 0.284168 7.97285C 0.426251 8.67222 0.710416 9.23172 1.13667 9.79121C 1.56292 10.3507 1.98916 10.7703 2.69958 11.0501C 3.26792 11.3298 3.97833 11.4697 4.83083 11.4697C 6.10958 11.4697 7.24625 11.0501 7.95667 10.3507C 8.66709 9.65134 9.09334 8.53234 9.23542 7.1336C 9.23542 6.99372 9.23542 6.99372 9.09334 6.85385C 8.95125 6.71397 8.80917 6.71397 8.66709 6.71397Z"/>
<path id="path14_fill" d="M 4.54667 2.13432e-06L 0.284166 2.13432e-06C 0.142082 2.13432e-06 -2.16802e-06 0.139872 -2.16802e-06 0.279747L -2.16802e-06 10.6305C -2.16802e-06 10.7703 0.142082 10.9102 0.284166 10.9102L 1.56292 10.9102C 1.705 10.9102 1.84709 10.7703 1.84709 10.6305L 1.84709 6.71398L 4.40459 6.71398C 5.39917 6.71398 6.25167 6.43422 6.82 5.87473C 7.38834 5.31523 7.6725 4.47599 7.6725 3.49686C 7.6725 2.51774 7.38834 1.67849 6.82 1.119C 6.53584 0.419625 5.68333 2.13432e-06 4.54667 2.13432e-06ZM 1.98917 1.81837L 4.12042 1.81837C 4.68875 1.81837 5.25708 1.95824 5.54125 2.23799C 5.82542 2.51774 5.9675 2.93736 5.9675 3.35699C 5.9675 3.91648 5.82542 4.19623 5.54125 4.47598C 5.25708 4.75573 4.83083 4.89561 4.12042 4.89561L 1.98917 4.89561L 1.98917 1.81837Z"/>
<path id="path15_fill" d="M 7.10417 8.95197L 1.98916 8.95197L 1.98916 6.0146L 6.67792 6.0146C 6.82 6.0146 6.96208 5.87473 6.96208 5.73485L 6.96208 4.61586C 6.96208 4.47598 6.82 4.33611 6.67792 4.33611L 1.98916 4.33611L 1.98916 1.6785L 6.96208 1.6785C 7.10417 1.6785 7.24625 1.53862 7.24625 1.39874L 7.24625 0.27975C 7.24625 0.139876 7.10417 9.93868e-15 6.96208 9.93868e-15L 0.284169 9.93868e-15C 0.142086 9.93868e-15 1.08401e-06 0.139876 1.08401e-06 0.27975L 1.08401e-06 10.4906C 1.08401e-06 10.6305 0.142086 10.7703 0.284169 10.7703L 6.96208 10.7703C 7.10417 10.7703 7.24625 10.6305 7.24625 10.4906L 7.24625 9.37159C 7.38833 9.09184 7.24625 8.95197 7.10417 8.95197Z"/>
<path id="path16_fill" d="M 9.66167 8.95197L 8.95126 8.95197L 8.95126 0.27975C 8.95126 0.139876 8.80917 9.93868e-15 8.66709 9.93868e-15L 2.5575 9.93868e-15C 2.41542 9.93868e-15 2.27333 0.139876 2.27333 0.27975L 2.27333 2.37787C 2.27333 3.07724 2.27334 3.77661 2.13125 4.47598C 2.13125 5.17536 1.98917 5.73485 1.84709 6.43422C 1.705 6.99372 1.56292 7.55322 1.42084 8.11272C 1.27875 8.53234 1.13667 8.81209 0.994582 9.23171L 0.284165 9.23171C 0.142081 9.23171 2.16802e-06 9.37159 2.16802e-06 9.51146L 2.16802e-06 13.1482C 2.16802e-06 13.2881 0.142081 13.4279 0.284165 13.4279L 1.56292 13.4279C 1.705 13.4279 1.84709 13.2881 1.84709 13.1482L 1.84709 10.9102L 8.24084 10.9102L 8.24084 13.1482C 8.24084 13.2881 8.38292 13.4279 8.52501 13.4279L 9.80375 13.4279C 9.94584 13.4279 10.0879 13.2881 10.0879 13.1482L 10.0879 9.51146C 9.94584 9.09184 9.80376 8.95197 9.66167 8.95197ZM 3.26792 8.2526C 3.41 7.83297 3.55209 7.27347 3.55209 6.71397C 3.69417 6.15448 3.69417 5.59498 3.83625 4.89561C 3.83625 4.19623 3.97834 3.63673 3.97834 2.93736L 3.97834 1.81837L 6.96209 1.81837L 6.96209 9.09184L 2.98375 9.09184C 3.12583 8.67222 3.26792 8.53234 3.26792 8.2526Z"/>
<path id="path17_fill" d="M 5.68334 0.139872C 5.68334 -2.1364e-06 5.54126 0 5.39917 0L 3.97834 0C 3.83626 0 3.69417 0.139876 3.69417 0.27975L -2.16802e-06 10.4906C -2.16802e-06 10.6305 -2.16802e-06 10.6305 -2.16802e-06 10.7703C -2.16802e-06 10.9102 0.142082 10.9102 0.284166 10.9102L 1.56291 10.9102C 1.705 10.9102 1.84709 10.7703 1.84709 10.6305L 2.84167 7.83297L 6.39375 7.83297L 7.38834 10.6305C 7.38834 10.7703 7.53042 10.9102 7.67251 10.9102L 9.09334 10.9102C 9.23542 10.9102 9.23542 10.9102 9.3775 10.7703C 9.3775 10.6305 9.51959 10.6305 9.3775 10.4906L 5.68334 0.139872ZM 5.82542 5.87473L 3.41 5.87473L 4.54668 2.37787L 5.82542 5.87473Z"/>
</defs>
</svg>
