<svg width="240" height="240" xmlns="http://www.w3.org/2000/svg" xmlns:xlink="http://www.w3.org/1999/xlink"><g opacity=".33" filter="url(#filter0_d)" transform="translate(-9365 -312)" fill="#FFF"><use xlink:href="#path0_fill" transform="translate(9376 328)"/><use xlink:href="#path1_fill" transform="translate(9422.16 374.156)"/></g><defs><filter id="filter0_d" filterUnits="userSpaceOnUse" x="9365" y="312" width="240" height="240" color-interpolation-filters="sRGB"><feFlood flood-opacity="0" result="BackgroundImageFix"/><feColorMatrix in="SourceAlpha" values="0 0 0 0 0 0 0 0 0 0 0 0 0 0 0 0 0 0 255 0"/><feOffset dx="9" dy="4"/><feGaussianBlur stdDeviation="10"/><feColorMatrix values="0 0 0 0 0 0 0 0 0 0 0 0 0 0 0 0 0 0 0.15 0"/><feBlend in2="BackgroundImageFix" result="effect1_dropShadow"/><feBlend in="SourceGraphic" in2="effect1_dropShadow" result="shape"/></filter><path id="path0_fill" d="M195.554 173.8l-41.226-41.225c9.935-14.342 14.905-30.328 14.905-47.957 0-11.458-2.224-22.417-6.673-32.873-4.446-10.458-10.456-19.472-18.028-27.045-7.572-7.572-16.585-13.582-27.041-18.029C107.032 2.224 96.074 0 84.616 0 73.159 0 62.2 2.224 51.744 6.671 41.286 11.118 32.272 17.128 24.7 24.701c-7.573 7.572-13.582 16.587-18.03 27.044C2.225 62.202 0 73.16 0 84.618c0 11.457 2.224 22.412 6.67 32.872 4.447 10.456 10.457 19.469 18.03 27.044 7.572 7.572 16.588 13.579 27.044 18.028 10.458 4.447 21.415 6.67 32.872 6.67 17.63 0 33.616-4.97 47.959-14.904l41.225 41.105c2.885 3.044 6.486 4.567 10.817 4.567 4.247 0 7.872-1.501 10.877-4.507 3.005-3.005 4.506-6.629 4.506-10.877 0-4.247-1.481-7.851-4.446-10.816zm-72.897-51.145c-10.536 10.539-23.216 15.808-38.041 15.808-14.823 0-27.502-5.27-38.04-15.808C36.04 112.119 30.77 99.441 30.77 84.615c0-14.822 5.27-27.504 15.807-38.04C57.112 36.037 69.793 30.77 84.615 30.77s27.503 5.27 38.041 15.806c10.539 10.536 15.807 23.218 15.807 38.04 0 14.826-5.27 27.504-15.807 38.04z"/><path id="path1_fill" d="M73.076 30.77H46.153V3.845c0-1.042-.381-1.943-1.142-2.704C44.249.38 43.348 0 42.307 0h-7.693c-1.041 0-1.942.38-2.703 1.142-.761.761-1.142 1.662-1.142 2.704V30.77H3.846c-1.042 0-1.943.381-2.704 1.142C.38 32.672 0 33.573 0 34.615v7.692c0 1.042.38 1.944 1.142 2.704.761.762 1.66 1.143 2.704 1.143h26.923v26.923c0 1.043.38 1.943 1.142 2.706.761.76 1.662 1.14 2.703 1.14h7.693c1.04 0 1.942-.38 2.703-1.14.761-.763 1.142-1.663 1.142-2.706V46.154h26.923c1.043 0 1.942-.381 2.706-1.143.76-.76 1.138-1.662 1.138-2.704v-7.692c0-1.042-.379-1.943-1.138-2.704-.76-.76-1.663-1.142-2.705-1.142z"/></defs></svg>