<svg width="26" height="30" viewBox="0 0 26 30" version="1.1" xmlns="http://www.w3.org/2000/svg" xmlns:xlink="http://www.w3.org/1999/xlink">
<title>Vector</title>
<desc>Created using Figma</desc>
<g id="Canvas" transform="translate(9967 -3815)">
<g id="Vector">
<use xlink:href="#path0_fill" transform="matrix(-1 0 0 1 -9941 3815)" fill="#1E1A08"/>
</g>
</g>
<defs>
<path id="path0_fill" d="M 20.2223 27.1101C 19.8021 27.1101 19.4131 27.0238 19.1242 26.8951C 18.0974 26.3626 17.3759 25.6263 16.6518 23.4613C 15.9165 21.2076 14.532 20.1538 13.2014 19.1288C 12.0595 18.2463 10.8752 17.3388 9.84973 15.4738C 9.08439 14.09 8.66539 12.5725 8.66539 11.2288C 8.66539 7.18628 11.8444 4.01125 15.8876 4.01125C 19.9309 4.01125 23.1099 7.18628 23.1099 11.2288L 25.9988 11.2288C 25.9988 5.55749 21.5629 1.12122 15.8876 1.12122C 10.2112 1.12122 5.77649 5.55749 5.77649 11.2288C 5.77649 13.0463 6.32677 15.0563 7.32347 16.8625C 8.63659 19.2425 10.1836 20.4413 11.4404 21.4088C 12.6085 22.3025 13.4477 22.955 13.9091 24.3688C 14.7758 26.9938 15.8888 28.4675 17.8511 29.495C 18.5889 29.8263 19.3993 30 20.2222 30C 23.415 30 26 27.4175 26 24.225L 23.1111 24.225C 23.1112 25.8113 21.8105 27.1101 20.2223 27.1101ZM 6.70198 2.04998L 4.65096 0C 1.77583 2.87249 -6.1047e-08 6.845 -6.1047e-08 11.23C -6.1047e-08 15.62 1.77589 19.5913 4.65101 22.4626L 6.68701 20.4263C 4.34838 18.0738 2.8889 14.8263 2.8889 11.23C 2.8889 7.63752 4.34958 4.38874 6.70198 2.04998ZM 12.2784 11.23C 12.2784 13.2225 13.8955 14.8425 15.8889 14.8425C 17.8823 14.8425 19.5006 13.2225 19.5006 11.23C 19.5006 9.23751 17.8824 7.62004 15.8889 7.62004C 13.8954 7.62129 12.2784 9.23877 12.2784 11.23Z"/>
</defs>
</svg>
