<svg width="16" height="15" viewBox="0 0 16 15" version="1.1" xmlns="http://www.w3.org/2000/svg" xmlns:xlink="http://www.w3.org/1999/xlink">
<title>Group</title>
<desc>Created using Figma</desc>
<g id="Canvas" transform="translate(9969 -3528)">
<g id="Group">
<g id="Group">
<g id="Vector">
<use xlink:href="#path0_fill" transform="translate(-9969 3528)" fill="#EB5757"/>
</g>
</g>
<g id="Vector">
<use xlink:href="#path1_fill" transform="translate(-9967.79 3534.78)" fill="#EB5757"/>
</g>
</g>
</g>
<defs>
<path id="path0_fill" d="M 15.8054 7.36209L 8.48522 0.190948C 8.22571 -0.0636492 7.77158 -0.0636492 7.51208 0.190948L 0.202737 7.36209C -0.067579 7.6273 -0.067579 8.05163 0.202737 8.31683C 0.473053 8.58204 0.905558 8.59265 1.17587 8.32744L 2.03007 7.5L 13.978 7.5L 14.8322 8.32744C 14.962 8.45474 15.1458 8.51839 15.3188 8.51839C 15.4918 8.51839 15.6756 8.45474 15.8054 8.31683C 16.0649 8.06224 16.0649 7.6273 15.8054 7.36209ZM 3.40328 6.11033L 5.34955 4.20085L 7.29583 6.11033L 3.40328 6.11033ZM 6.32269 3.26733L 7.99865 1.62306L 9.67461 3.26733L 7.99865 4.9116L 6.32269 3.26733ZM 8.70147 6.11033L 10.6477 4.20085L 12.594 6.11033L 8.70147 6.11033Z"/>
<path id="path1_fill" d="M 12.5643 1.61868e-07L 12.5643 7.09689L 9.13668 7.09689L 9.13668 2.62023L 4.57375 2.62023L 4.57375 7.09689L 1.14614 7.09689L 1.14614 1.61868e-07L -2.06235e-08 1.12447L -2.06235e-08 8.22136L 13.7104 8.22136L 13.7104 1.12447L 12.5643 1.61868e-07Z"/>
</defs>
</svg>
