<svg width="16" height="12" viewBox="0 0 16 12" version="1.1" xmlns="http://www.w3.org/2000/svg" xmlns:xlink="http://www.w3.org/1999/xlink">
<title>roller-shutter-door</title>
<desc>Created using Figma</desc>
<g id="Canvas" transform="translate(9968 -3601)">
<g id="roller-shutter-door">
<g id="Vector">
<use xlink:href="#path0_fill" transform="translate(-9968 3601)" fill="#EB5757"/>
</g>
</g>
</g>
<defs>
<path id="path0_fill" d="M 3.36 4.17814C 3.36 3.92469 3.57472 3.71954 3.84 3.71954L 12.16 3.71954C 12.4253 3.71954 12.64 3.92469 12.64 4.17814C 12.64 4.43159 12.4253 4.63674 12.16 4.63674L 3.84 4.63674C 3.57472 4.63674 3.36 4.43159 3.36 4.17814ZM 3.84 9.7709L 12.16 9.7709C 12.4253 9.7709 12.64 9.56576 12.64 9.31231C 12.64 9.05885 12.4253 8.85371 12.16 8.85371L 3.84 8.85371C 3.57472 8.85371 3.36 9.05885 3.36 9.31231C 3.36 9.56576 3.57472 9.7709 3.84 9.7709ZM 3.84 6.32652L 12.16 6.32652C 12.4253 6.32652 12.64 6.12138 12.64 5.86792C 12.64 5.61447 12.4253 5.40933 12.16 5.40933L 3.84 5.40933C 3.57472 5.40933 3.36 5.61447 3.36 5.86792C 3.36 6.12138 3.57472 6.32652 3.84 6.32652ZM 3.84 8.08112L 12.16 8.08112C 12.4253 8.08112 12.64 7.87597 12.64 7.62252C 12.64 7.36907 12.4253 7.16392 12.16 7.16392L 3.84 7.16392C 3.57472 7.16392 3.36 7.36907 3.36 7.62252C 3.36 7.87567 3.57472 8.08112 3.84 8.08112ZM 14.56 2.40764L 14.56 11.0828L 15.52 11.0828C 15.7853 11.0828 16 11.2879 16 11.5414C 16 11.7949 15.7853 12 15.52 12L 0.48 12C 0.21472 12 0 11.7949 0 11.5414C 0 11.2879 0.21472 11.0828 0.48 11.0828L 1.44 11.0828L 1.44 2.40764L 0.48 2.40764C 0.21472 2.40764 0 2.2025 0 1.94904L 0 0.458599C 0 0.205146 0.21472 0 0.48 0L 15.52 0C 15.7853 0 16 0.205146 16 0.458599L 16 1.94904C 16 2.2025 15.7853 2.40764 15.52 2.40764L 14.56 2.40764ZM 13.6 2.40764L 2.4 2.40764L 2.4 11.0828L 13.6 11.0828L 13.6 2.40764Z"/>
</defs>
</svg>
