<svg width="15" height="16" viewBox="0 0 15 16" version="1.1" xmlns="http://www.w3.org/2000/svg" xmlns:xlink="http://www.w3.org/1999/xlink">
<title>stairs</title>
<desc>Created using Figma</desc>
<g id="Canvas" transform="translate(9968 -3633)">
<g id="stairs">
<g id="Vector">
<use xlink:href="#path0_fill" transform="translate(-9968 3633)" fill="#EB5757"/>
</g>
</g>
</g>
<defs>
<path id="path0_fill" d="M 3.51626 12.2995L 0.566296 12.2995C 0.275393 12.2995 0.0394942 12.5379 0.0394942 12.8319L 0.0394942 15.4675C 0.0394942 15.7616 0.27534 16 0.566296 16L 14.4732 16C 14.7641 16 15 15.7616 15 15.4675L 15 7.56073C 15 7.26669 14.7642 7.02826 14.4732 7.02826L 11.5232 7.02826L 11.5232 2.82193L 14.4337 2.82193C 14.7246 2.82193 14.9605 2.58354 14.9605 2.28945L 14.9605 0.532471C 14.9605 0.238438 14.7246 0 14.4337 0L 10.392 0C 10.299 0 10.2077 0.024835 10.1273 0.0720808L 0.262122 5.91542C 0.0998813 6.01072 -4.06635e-10 6.18613 -4.06635e-10 6.37581L -4.06635e-10 8.43927C -4.06635e-10 8.62993 0.100841 8.80598 0.264414 8.90101C 0.345641 8.94815 0.436248 8.97174 0.526749 8.97174C 0.618475 8.97174 0.710202 8.94756 0.792175 8.89923L 3.51621 7.29314L 3.51621 12.2995L 3.51626 12.2995ZM 10.4697 8.78535L 8.04652 8.78535L 8.04652 4.62195L 10.4697 3.19321L 10.4697 8.78535ZM 1.05355 6.68218L 10.5339 1.06489L 13.9069 1.06489L 13.9069 1.75709L 10.9569 1.75709C 10.8637 1.75709 10.772 1.78209 10.6915 1.8296L 1.05355 7.5123L 1.05355 6.68218ZM 6.99297 10.5424L 4.56981 10.5424L 4.56981 6.68218C 4.56981 6.67879 4.56938 6.6755 4.56933 6.67216L 6.99303 5.2431L 6.99303 10.5424L 6.99297 10.5424ZM 4.56981 11.6073L 7.51977 11.6073C 7.81068 11.6073 8.04658 11.3689 8.04658 11.0749L 8.04658 9.85024L 10.9965 9.85024C 11.2874 9.85024 11.5233 9.61185 11.5233 9.31776L 11.5233 8.0932L 13.9465 8.0932L 13.9465 14.9351L 1.0931 14.9351L 1.0931 13.3644L 4.04306 13.3644C 4.33396 13.3644 4.56986 13.126 4.56986 12.8319L 4.56986 11.6073L 4.56981 11.6073Z"/>
</defs>
</svg>
