<svg width="30" height="26" viewBox="0 0 30 26" version="1.1" xmlns="http://www.w3.org/2000/svg" xmlns:xlink="http://www.w3.org/1999/xlink">
<title>Vector</title>
<desc>Created using Figma</desc>
<g id="Canvas" transform="translate(9969 -3703)">
<g id="Vector">
<use xlink:href="#path0_fill" transform="translate(-9969 3703)" fill="#1E1A08"/>
</g>
</g>
<defs>
<path id="path0_fill" d="M 28.8995 1.05035L 28.0879 0.219674C 27.8016 -0.0732245 27.3377 -0.0732245 27.0514 0.219674C 26.7651 0.512723 26.7651 0.987782 27.0514 1.28068L 27.8629 2.11136C 28.2957 2.55431 28.5339 3.14326 28.5339 3.76957L 28.5339 18.9929C 28.5339 19.7564 27.9271 20.3775 27.1813 20.3775C 27.1623 20.3775 27.1446 20.3817 27.126 20.3832C 26.7758 18.0457 24.8027 16.2556 22.4211 16.2556C 20.2499 16.2556 18.4195 17.7441 17.8475 19.7782C 15.9775 18.7958 14.0684 18.7725 12.3044 19.7052C 11.7097 17.7085 9.89641 16.2556 7.75097 16.2556C 5.35809 16.2556 3.37831 18.0631 3.04187 20.4168C 2.97106 20.3934 2.89688 20.3775 2.81846 20.3775C 2.07257 20.3775 1.46581 19.7564 1.46581 18.9929L 1.46581 3.76957C 1.46581 3.14326 1.70403 2.55431 2.13678 2.11151L 2.94849 1.28083C 3.23479 0.987782 3.23479 0.512873 2.94849 0.219824C 2.66233 -0.0732246 2.19821 -0.0732246 1.91191 0.219824L 1.1002 1.05065C 0.390825 1.77675 0 2.74247 0 3.76957L 0 18.9929C 0 20.5838 1.26439 21.878 2.8186 21.878C 2.89703 21.878 2.97121 21.8621 3.04201 21.8386C 3.37831 24.1925 5.35823 26 7.75112 26C 10.318 26 12.4092 23.92 12.5065 21.3171C 14.137 20.2307 15.891 20.2565 17.6686 21.3954C 17.8045 23.9617 19.8802 26 22.4213 26C 24.8029 26 26.7759 24.2097 27.1261 21.8723C 27.1447 21.8738 27.1625 21.878 27.1814 21.878C 28.7356 21.878 30 20.5838 30 18.9929L 30 3.76957C 29.9999 2.74247 29.609 1.77675 28.8995 1.05035ZM 8.4775 18.6189C 8.4237 19.0278 8.0578 19.3157 7.65847 19.263C 7.38668 19.2308 6.02554 19.1577 5.60554 20.8285C 5.52037 21.167 5.22263 21.3919 4.89616 21.3919C 4.83562 21.3919 4.77419 21.3843 4.71292 21.3681C 4.32092 21.2649 4.0849 20.8558 4.18576 20.4546C 4.79765 18.0208 6.84897 17.6381 7.84861 17.7753C 8.24999 17.8305 8.53145 18.2082 8.4775 18.6189ZM 23.2941 18.5694C 23.2403 18.9782 22.8744 19.2654 22.4751 19.2135C 22.203 19.1811 20.8421 19.1082 20.4221 20.779C 20.337 21.1175 20.0392 21.3424 19.7128 21.3424C 19.6522 21.3424 19.5908 21.3348 19.5295 21.3186C 19.1375 21.2153 18.9015 20.8063 19.0024 20.4051C 19.6144 17.9712 21.6657 17.5891 22.6654 17.7258C 23.0666 17.781 23.3481 18.1587 23.2941 18.5694Z"/>
</defs>
</svg>
