<svg width="28" height="30" viewBox="0 0 28 30" version="1.1" xmlns="http://www.w3.org/2000/svg" xmlns:xlink="http://www.w3.org/1999/xlink">
<title>Vector</title>
<desc>Created using Figma</desc>
<g id="Canvas" transform="translate(9967 -3758)">
<g id="Vector">
<use xlink:href="#path0_fill" transform="translate(-9967 3758)" fill="#1E1A08"/>
</g>
</g>
<defs>
<path id="path0_fill" d="M 8.14399 4.16221C 7.98399 3.79935 7.90399 3.40448 7.90399 2.97758C 7.90399 2.57203 7.98399 2.18783 8.14399 1.82497C 8.30399 1.46211 8.51733 1.14728 8.784 0.880468C 9.05066 0.61366 9.36533 0.400213 9.728 0.240128C 10.0907 0.0800426 10.4853 0 10.912 0C 11.3173 0 11.7013 0.0800426 12.064 0.240128C 12.4267 0.400213 12.7467 0.61366 13.024 0.880468C 13.3014 1.14728 13.5147 1.46211 13.664 1.82497C 13.8134 2.18783 13.888 2.57203 13.888 2.97758C 13.888 3.81003 13.6 4.51974 13.024 5.10671C 12.448 5.69369 11.744 5.98718 10.912 5.98718C 10.4853 5.98718 10.0907 5.90714 9.728 5.74705C 9.36533 5.58697 9.05066 5.37352 8.784 5.10671C 8.51733 4.83991 8.30399 4.52507 8.14399 4.16221ZM 19.7761 20.5549C 19.4134 20.4695 19.0881 20.523 18.8001 20.7151C 18.5121 20.9072 18.3254 21.1739 18.2401 21.5155C 18.1761 21.8357 18.0801 22.1452 17.9521 22.444C 17.6748 23.191 17.2854 23.8741 16.7841 24.4931C 16.2828 25.1121 15.7067 25.6458 15.0561 26.094C 14.4054 26.5422 13.6907 26.8891 12.9121 27.1347C 12.1334 27.38 11.3281 27.5028 10.4961 27.5028C 9.40805 27.5028 8.38405 27.3001 7.42404 26.8946C 6.46404 26.4889 5.6267 25.9447 4.91203 25.2616C 4.19736 24.5785 3.63202 23.7728 3.21602 22.8444C 2.80002 21.9159 2.59201 20.9179 2.59201 19.8507C 2.59201 19.0609 2.71468 18.2978 2.96002 17.5614C 3.20535 16.825 3.55202 16.142 4.00002 15.5124C 4.44802 14.8826 4.98136 14.3277 5.60003 13.8474C 6.2187 13.3672 6.91204 12.9776 7.68004 12.6788C 8.02138 12.5721 8.26671 12.3586 8.41605 12.0385C 8.56538 11.7183 8.57605 11.3981 8.44805 11.0779C 8.32005 10.7578 8.09071 10.5283 7.76004 10.3896C 7.42938 10.2508 7.09337 10.2348 6.75204 10.3415C 5.74937 10.7258 4.83203 11.238 4.00002 11.8784C 3.16802 12.5187 2.45335 13.2551 1.85601 14.0875C 1.25867 14.92 0.800004 15.827 0.480003 16.809C 0.160001 17.7908 4.86688e-08 18.8046 4.86688e-08 19.8506C 4.86688e-08 21.2595 0.277335 22.5773 0.832005 23.8047C 1.38667 25.032 2.13868 26.1045 3.08802 27.0224C 4.03736 27.9402 5.1467 28.666 6.41604 29.1995C 7.68538 29.7332 9.04538 30 10.4961 30C 11.6054 30 12.6721 29.8399 13.6961 29.5197C 14.72 29.1995 15.6694 28.7459 16.5441 28.159C 17.4187 27.5721 18.1868 26.8623 18.848 26.0298C 19.5093 25.1974 20.0213 24.2796 20.384 23.2764C 20.5334 22.9134 20.6613 22.508 20.768 22.0598C 20.8535 21.6968 20.8 21.3766 20.608 21.0992C 20.416 20.8219 20.1388 20.6404 19.7761 20.5549ZM 27.84 25.4536L 22.944 16.937C 22.7734 16.574 22.5173 16.2859 22.176 16.0725C 21.8347 15.859 21.4507 15.7524 21.024 15.7524L 15.584 15.7524L 14.944 12.6147L 19.2001 12.6147C 19.4561 12.6361 19.7014 12.5934 19.9361 12.4866C 20.1706 12.3799 20.352 12.2092 20.48 11.9744C 20.6508 11.6755 20.688 11.3554 20.5921 11.0139C 20.4961 10.6723 20.2881 10.4162 19.968 10.2454C 19.7973 10.1387 19.6053 10.0854 19.392 10.0854L 14.3999 10.0854L 14.1119 8.61258C 14.1119 8.56989 14.1065 8.54321 14.0959 8.53254C 14.0852 8.52186 14.0798 8.49518 14.0798 8.45249L 14.0479 8.35644C 13.8985 7.86551 13.6159 7.45997 13.1999 7.1398C 12.7839 6.81962 12.2985 6.65954 11.7439 6.65954C 11.0612 6.65954 10.4852 6.889 10.0158 7.34791C 9.54651 7.80682 9.31184 8.35644 9.31184 8.99678C 9.31184 9.10351 9.32251 9.18888 9.34384 9.25292L 9.31184 9.25292L 11.0719 17.7374C 11.1572 18.2284 11.3919 18.6286 11.7759 18.9381C 12.1599 19.2476 12.6079 19.4023 13.1199 19.4023C 13.2692 19.4023 13.3865 19.3917 13.4719 19.3703L 20.736 19.3703L 24.96 26.7343C 25.0879 27.0117 25.2799 27.2359 25.536 27.4067C 25.792 27.5775 26.0907 27.6629 26.432 27.6629C 26.8587 27.6629 27.2267 27.5136 27.536 27.2146C 27.8453 26.9157 28 26.553 28 26.126C 28.0002 25.891 27.9468 25.667 27.84 25.4536Z"/>
</defs>
</svg>
