<svg width="80" height="80" viewBox="0 0 40 40" version="1.1" xmlns="http://www.w3.org/2000/svg" xmlns:xlink="http://www.w3.org/1999/xlink">
<title>left</title>
<desc>Created using Figma</desc>
<use xlink:href="#path0_fill" fill="red"/>
<path transform="translate(16, 19)" d="M 8.35355 0.353553C 8.54882 0.158291 8.54882 -0.158291 8.35355 -0.353553L 5.17157 -3.53553C 4.97631 -3.7308 4.65973 -3.7308 4.46447 -3.53553C 4.2692 -3.34027 4.2692 -3.02369 4.46447 -2.82843L 7.29289 0L 4.46447 2.82843C 4.2692 3.02369 4.2692 3.34027 4.46447 3.53553C 4.65973 3.7308 4.97631 3.7308 5.17157 3.53553L 8.35355 0.353553ZM 0 0.5L 8 0.5L 8 -0.5L 0 -0.5L 0 0.5Z"/>

<g id="left">
<g id="Arrow">
<use xlink:href="#path1_stroke" transform="matrix(-1 1.22465e-16 -1.22465e-16 -1 -12365 2315)" fill="red"/>
</g>
</g>
<defs>
<path id="path0_fill" d="M 40 20C 40 31.0457 31.0457 40 20 40C 8.9543 40 0 31.0457 0 20C 0 8.9543 8.9543 0 20 0C 31.0457 0 40 8.9543 40 20Z"/>
<path id="path1_stroke" d="M 8.35355 0.353553C 8.54882 0.158291 8.54882 -0.158291 8.35355 -0.353553L 5.17157 -3.53553C 4.97631 -3.7308 4.65973 -3.7308 4.46447 -3.53553C 4.2692 -3.34027 4.2692 -3.02369 4.46447 -2.82843L 7.29289 0L 4.46447 2.82843C 4.2692 3.02369 4.2692 3.34027 4.46447 3.53553C 4.65973 3.7308 4.97631 3.7308 5.17157 3.53553L 8.35355 0.353553ZM 0 0.5L 8 0.5L 8 -0.5L 0 -0.5L 0 0.5Z"/>
</defs>
</svg>
